<svg width="51" height="45" viewBox="0 0 51 45" fill="none" xmlns="http://www.w3.org/2000/svg">
<path d="M50.0095 35.795L31.0795 3.04028C30.3529 1.70179 29.3012 0.803093 27.9245 0.344183C26.5477 -0.114728 25.171 -0.114728 23.7943 0.344183C22.4175 0.803093 21.3659 1.70179 20.6393 3.04028L1.70921 35.795C0.944358 37.0953 0.695782 38.4529 0.96348 39.8678C1.23118 41.2828 1.91954 42.4683 3.02858 43.4244C4.13761 44.3805 5.43786 44.8585 6.92932 44.8585H44.7894C46.2809 44.8585 47.5811 44.3805 48.6902 43.4244C49.7992 42.4683 50.4876 41.2828 50.7553 39.8678C51.023 38.4529 50.7744 37.0953 50.0095 35.795ZM29.8748 37.4012C29.8748 38.0896 29.6263 38.6823 29.1291 39.1795C28.632 39.6766 28.0392 39.9252 27.3508 39.9252H24.3679C23.6796 39.9252 23.0868 39.6766 22.5896 39.1795C22.0925 38.6823 21.8439 38.0896 21.8439 37.4012V34.8772C21.8439 34.1888 22.0925 33.6056 22.5896 33.1276C23.0868 32.6496 23.6796 32.4106 24.3679 32.4106H27.2935C28.0201 32.4106 28.632 32.6496 29.1291 33.1276C29.6263 33.6056 29.8748 34.1888 29.8748 34.8772V37.4012ZM29.2438 27.0184C29.2438 27.745 29.0144 28.3473 28.5555 28.8253C28.0966 29.3033 27.5229 29.5424 26.8346 29.5424H24.8842C24.1958 29.5424 23.6222 29.3033 23.1633 28.8253C22.7044 28.3473 22.4749 27.745 22.4749 27.0184L21.6145 12.7921C21.5762 12.142 21.8439 11.5684 22.4175 11.0712C22.9912 10.5741 23.6413 10.3255 24.3679 10.3255H27.3508C28.0774 10.3255 28.7276 10.5741 29.3012 11.0712C29.8748 11.5684 30.1425 12.142 30.1043 12.7921L29.2438 27.0184Z" fill="#E8E136"/>
</svg>
