<svg width="46" height="45" viewBox="0 0 46 45" fill="none" xmlns="http://www.w3.org/2000/svg">
<path opacity="0.4" d="M22.5469 45C34.9732 45 45.0469 34.9265 45.0469 22.5C45.0469 10.0736 34.9732 0 22.5469 0C10.1205 0 0.046875 10.0736 0.046875 22.5C0.046875 34.9265 10.1205 45 22.5469 45Z" fill="#F0FFF4"/>
<path d="M22.5469 11.0923C17.8894 11.0923 14.1094 14.8723 14.1094 19.5297C14.1094 24.0972 17.6869 27.8097 22.4344 27.9447H22.6369H22.7944H22.8394C27.3844 27.7872 30.9619 24.0972 30.9844 19.5297C30.9844 14.8723 27.2044 11.0923 22.5469 11.0923Z" fill="#F0FFF4"/>
<path d="M37.803 39.0376C33.798 42.7276 28.443 45.0001 22.548 45.0001C16.653 45.0001 11.298 42.7276 7.29297 39.0376C7.83297 36.9901 9.29547 35.1226 11.433 33.6826C17.5755 29.5876 27.5655 29.5876 33.663 33.6826C35.823 35.1226 37.263 36.9901 37.803 39.0376Z" fill="#F0FFF4"/>
</svg>
