<svg width="46" height="45" viewBox="0 0 46 45" fill="none" xmlns="http://www.w3.org/2000/svg">
<path opacity="0.4" d="M22.5469 45C34.9732 45 45.0469 34.9265 45.0469 22.5C45.0469 10.0736 34.9732 0 22.5469 0C10.1205 0 0.046875 10.0736 0.046875 22.5C0.046875 34.9265 10.1205 45 22.5469 45Z" fill="#F0FFF4"/>
<path d="M22.5469 11.0923C17.8894 11.0923 14.1094 14.8723 14.1094 19.5297C14.1094 24.0972 17.6869 27.8097 22.4344 27.9447H22.6369H22.7944H22.8394C27.3844 27.7872 30.9619 24.0972 30.9844 19.5297C30.9844 14.8723 27.2044 11.0923 22.5469 11.0923Z" fill="#F0FFF4"/>
<path d="M37.8035 39.0375C33.7985 42.7275 28.4435 45 22.5485 45C16.6535 45 11.2985 42.7275 7.29346 39.0375C7.83346 36.99 9.29596 35.1225 11.4335 33.6825C17.576 29.5875 27.566 29.5875 33.6635 33.6825C35.8235 35.1225 37.2635 36.99 37.8035 39.0375Z" fill="#F0FFF4"/>
</svg>
