<svg width="31" height="40" viewBox="0 0 31 40" fill="none" xmlns="http://www.w3.org/2000/svg">
<path d="M15.0469 39.9999C17.412 39.9999 19.3306 37.7616 19.3306 34.9999H10.7632C10.7632 37.7616 12.6817 39.9999 15.0469 39.9999ZM29.4703 28.3038C28.1765 26.6819 25.7558 24.2421 25.7558 16.25C25.7558 10.1797 22.1076 5.3203 17.1884 4.12811V2.49999C17.1884 1.11953 16.2295 0 15.0469 0C13.8643 0 12.9054 1.11953 12.9054 2.49999V4.12811C7.98618 5.3203 4.33798 10.1797 4.33798 16.25C4.33798 24.2421 1.91723 26.6819 0.623482 28.3038C0.221698 28.8077 0.0435731 29.4101 0.0469213 29.9999C0.0542873 31.2812 0.916115 32.4999 2.19647 32.4999H27.8973C29.1776 32.4999 30.0401 31.2812 30.0468 29.9999C30.0502 29.4101 29.8721 28.8069 29.4703 28.3038Z" fill="white"/>
</svg>
