<svg width="60" height="36" viewBox="0 0 60 36" fill="none" xmlns="http://www.w3.org/2000/svg">
<path d="M59.7601 1.85262C59.4557 1.11979 58.8734 0.537431 58.1405 0.233094C57.78 0.0794159 57.3928 -0.00209735 57.0009 -0.00683594H42.0052C41.2098 -0.00683594 40.447 0.309144 39.8845 0.87159C39.3221 1.43404 39.0061 2.19688 39.0061 2.99229C39.0061 3.78771 39.3221 4.55055 39.8845 5.113C40.447 5.67544 41.2098 5.99142 42.0052 5.99142H49.773L33.0078 22.7566L23.1407 12.8594C22.8619 12.5783 22.5302 12.3552 22.1647 12.2029C21.7992 12.0507 21.4072 11.9723 21.0113 11.9723C20.6154 11.9723 20.2234 12.0507 19.8579 12.2029C19.4924 12.3552 19.1607 12.5783 18.8819 12.8594L0.887138 30.8542C0.606034 31.133 0.382916 31.4647 0.230654 31.8302C0.078392 32.1957 0 32.5877 0 32.9836C0 33.3795 0.078392 33.7715 0.230654 34.137C0.382916 34.5025 0.606034 34.8342 0.887138 35.113C1.16595 35.3941 1.49765 35.6172 1.86313 35.7695C2.2286 35.9217 2.6206 36.0001 3.01652 36.0001C3.41244 36.0001 3.80444 35.9217 4.16992 35.7695C4.53539 35.6172 4.86709 35.3941 5.1459 35.113L21.0113 19.2176L30.8784 29.1147C31.1573 29.3958 31.489 29.6189 31.8544 29.7712C32.2199 29.9235 32.6119 30.0019 33.0078 30.0019C33.4037 30.0019 33.7957 29.9235 34.1612 29.7712C34.5267 29.6189 34.8584 29.3958 35.1372 29.1147L54.0017 10.2202V17.9879C54.0017 18.7834 54.3177 19.5462 54.8802 20.1087C55.4426 20.6711 56.2055 20.9871 57.0009 20.9871C57.7963 20.9871 58.5591 20.6711 59.1216 20.1087C59.684 19.5462 60 18.7834 60 17.9879V2.99229C59.9953 2.60038 59.9137 2.21319 59.7601 1.85262Z" fill="#4871DA"/>
</svg>
